# xmcd
#
# Track frame offsets: 
#        182
#        16357
#        29660
#        58060
#        75370
#        92077
#        108325
#        121910
#        142527
#        178697
#        197452
#        216165
#        234872
#        257057
#        268960
#        291855
#        317677
#
# Disc length: 4483 seconds
#
# Revision: 1
# Processed by: cddbd v1.5.2PL0 Copyright (c) Steve Scherf et al.
# Submitted via: ExactAudioCopy v1.3
#
DISCID=e7118111
DTITLE=Eric Clapton - Crossroads CD 4
DYEAR=1988
DGENRE=Blues
TTITLE0=Hello Old Friend
TTITLE1=Sign Language
TTITLE2=Further On Up The Road
TTITLE3=Lay Down Sally
TTITLE4=Wonderful Tonight
TTITLE5=Cocaine
TTITLE6=Promises
TTITLE7=If I Don't Be There By Morning
TTITLE8=Double Trouble
TTITLE9=I Can't Stand It
TTITLE10=The Shape You're In
TTITLE11=Heaven Is One Step Away
TTITLE12=She's Waiting
TTITLE13=Too Bad
TTITLE14=Miss You
TTITLE15=Wanna Make Love To You
TTITLE16=After Midnight
EXTD=
EXTT0=
EXTT1=
EXTT2=
EXTT3=
EXTT4=
EXTT5=
EXTT6=
EXTT7=
EXTT8=
EXTT9=
EXTT10=
EXTT11=
EXTT12=
EXTT13=
EXTT14=
EXTT15=
EXTT16=
PLAYORDER=
